<svg xmlns="http://www.w3.org/2000/svg" width="32" height="32" viewBox="0 0 32 32">
    <path fill="#0BA2BD" fill-rule="nonzero" d="M16 7.067c-4.368 0-7.918 2.433-8.75 5.523l.153-.055.871-.323c.384-.142.692-.254 1.004-.363 2.445-.855 4.517-1.312 6.722-1.312 2.209 0 4.287.45 6.734 1.294-.195-.067 1.022.374 1.998.712C23.87 9.467 20.339 7.067 16 7.067zM7.067 13.96v.014a.481.481 0 0 0-.003-.046l.003.032zm-1.061-.996a.451.451 0 0 0 .014-.001l-.014.001zm5.453.005l.022.062 2.087 6.785a1.8 1.8 0 0 0 1.54 1.261v-8.777c-1.298.085-2.527.348-3.65.669zm-1.647.528c-2.7.948-4.459 1.884-4.479.502 0-4.786 4.776-8.667 10.667-8.667S26.667 9.213 26.667 14c-.014 1.34-1.785.404-4.5-.531a.878.878 0 0 1-.02.073l-2.087 6.784a3.533 3.533 0 0 1-3.377 2.495h-1.395a3.533 3.533 0 0 1-3.377-2.495l-2.087-6.784a.88.88 0 0 1-.012-.044zm10.708-.547c-1.131-.317-2.371-.574-3.679-.654v8.783a1.8 1.8 0 0 0 1.562-1.263l2.087-6.785a.877.877 0 0 1 .03-.081zm-5.682 10.788h2.266a.867.867 0 1 1 0 1.734h-2.266a.867.867 0 1 1 0-1.734z"/>
</svg>
