<?xml version="1.0" encoding="utf-8"?>
<!-- Generator: Adobe Illustrator 21.0.0, SVG Export Plug-In . SVG Version: 6.00 Build 0)  -->
<svg version="1.1" id="图层_1" xmlns="http://www.w3.org/2000/svg" xmlns:xlink="http://www.w3.org/1999/xlink" x="0px" y="0px"
	 viewBox="0 0 24 24" style="enable-background:new 0 0 24 24;" xml:space="preserve">
<style type="text/css">
	.st0{fill:#888888;}
</style>
<path class="st0" d="M10.8,12h1c0.4,0,0.8-0.3,0.8-0.8c0-0.4-0.3-0.8-0.8-0.8h-1c-0.4,0-0.8,0.3-0.8,0.8C10,11.7,10.3,12,10.8,12z"
	/>
<path class="st0" d="M15.2,20h1c0.4,0,0.8-0.3,0.8-0.8c0-0.4-0.3-0.8-0.8-0.8h-1c-0.4,0-0.8,0.3-0.8,0.8C14.5,19.7,14.8,20,15.2,20z
	"/>
<path class="st0" d="M10.8,16h1c0.4,0,0.8-0.3,0.8-0.8c0-0.4-0.3-0.8-0.8-0.8h-1c-0.4,0-0.8,0.3-0.8,0.8C10,15.7,10.3,16,10.8,16z"
	/>
<path class="st0" d="M15.2,12h1c0.4,0,0.8-0.3,0.8-0.8c0-0.4-0.3-0.8-0.8-0.8h-1c-0.4,0-0.8,0.3-0.8,0.8C14.5,11.7,14.8,12,15.2,12z
	"/>
<path class="st0" d="M15.2,16h1c0.4,0,0.8-0.3,0.8-0.8c0-0.4-0.3-0.8-0.8-0.8h-1c-0.4,0-0.8,0.3-0.8,0.8C14.5,15.7,14.8,16,15.2,16z
	"/>
<path class="st0" d="M10.8,20h1c0.4,0,0.8-0.3,0.8-0.8c0-0.4-0.3-0.8-0.8-0.8h-1c-0.4,0-0.8,0.3-0.8,0.8C10,19.7,10.3,20,10.8,20z"
	/>
<path class="st0" d="M6.2,20h1C7.7,20,8,19.7,8,19.2c0-0.4-0.3-0.8-0.8-0.8h-1c-0.4,0-0.8,0.3-0.8,0.8C5.5,19.7,5.8,20,6.2,20z"/>
<path class="st0" d="M18.8,2.5h-2.3V1.8c0-0.4-0.3-0.8-0.8-0.8S15,1.3,15,1.8v0.8H7.5V1.8C7.5,1.3,7.2,1,6.8,1S6,1.3,6,1.8v0.8H3.7
	C2.8,2.5,2,3.3,2,4.2v17c0,1,0.8,1.7,1.7,1.7h15.1c1,0,1.7-0.8,1.7-1.7v-17C20.5,3.3,19.7,2.5,18.8,2.5z M19,21.3
	c0,0.1-0.1,0.2-0.2,0.2H3.7c-0.1,0-0.2-0.1-0.2-0.2V9H19V21.3z M19,7.5H3.5V4.2C3.5,4.1,3.6,4,3.7,4H6v1.8c0,0.4,0.3,0.8,0.8,0.8
	s0.8-0.3,0.8-0.8V4H15v1.8c0,0.4,0.3,0.8,0.8,0.8s0.8-0.3,0.8-0.8V4h2.3C18.9,4,19,4.1,19,4.2V7.5z"/>
<path class="st0" d="M6.2,16h1C7.7,16,8,15.7,8,15.2c0-0.4-0.3-0.8-0.8-0.8h-1c-0.4,0-0.8,0.3-0.8,0.8C5.5,15.7,5.8,16,6.2,16z"/>
<path class="st0" d="M6.2,12h1C7.7,12,8,11.7,8,11.2c0-0.4-0.3-0.8-0.8-0.8h-1c-0.4,0-0.8,0.3-0.8,0.8C5.5,11.7,5.8,12,6.2,12z"/>
</svg>
