<!-- Generated by IcoMoon.io -->
<svg version="1.1" xmlns="http://www.w3.org/2000/svg" width="32" height="32" viewBox="0 0 32 32">
<title>car-v2</title>
<path fill="currentColor" d="M28 27.469c0 0.288-0.199 0.531-0.436 0.531h-1.705c-0.237 0-0.437-0.243-0.437-0.531 0-1.764-1.392-3.197-3.103-3.197h-12.637c-1.711 0-3.103 1.433-3.103 3.197 0 0.288-0.2 0.531-0.437 0.531h-1.705c-0.237 0-0.436-0.243-0.436-0.531v-10.923c0-1.712 0.952-3.213 1.527-3.213h20.947c0.575 0 1.527 1.501 1.527 3.213v10.923zM5.135 11.646l1.128-5.227c0.3-1.384 1.433-2.377 2.759-2.419l0.099-0.001 13.853 0.001c1.325 0.041 2.459 1.035 2.759 2.419l1.129 5.227c0.007 0.069 0.015 0.195 0.023 0.353h-21.773c0.008-0.159 0.016-0.284 0.024-0.353v0zM29.784 9.433c-0.347-0.115-0.725 0.072-0.844 0.421l-0.721 2.163c-0.015-0.311-0.031-0.576-0.053-0.645l-1.131-5.235c-0.423-1.957-2.071-3.409-4.020-3.468-0.045-0.001-0.093-0.003-0.14-0.003h-13.755c-0.047 0-0.092 0.001-0.14 0.003-1.949 0.059-3.597 1.511-4.019 3.468l-1.132 5.235c-0.016 0.051-0.029 0.203-0.041 0.401l-0.651-1.956c-0.117-0.349-0.495-0.535-0.844-0.423-0.349 0.117-0.539 0.495-0.423 0.844l1.277 3.835c0.004 0.011 0.016 0.016 0.021 0.027-0.317 0.755-0.503 1.619-0.503 2.447v10.923c0 1.029 0.792 1.864 1.769 1.864h1.705c0.979 0 1.771-0.835 1.771-1.864s0.791-1.864 1.769-1.864h12.637c0.979 0 1.769 0.835 1.769 1.864s0.792 1.864 1.771 1.864h1.705c0.977 0 1.769-0.835 1.769-1.864v-10.923c0-0.779-0.163-1.592-0.447-2.313l1.319-3.957c0.116-0.349-0.072-0.727-0.421-0.843v0z"></path>
<path fill="currentColor" d="M9.512 20.357c-0.833 0-1.512-0.679-1.512-1.512s0.679-1.512 1.512-1.512c0.833 0 1.512 0.679 1.512 1.512s-0.679 1.512-1.512 1.512zM9.512 15.999c-1.572 0-2.845 1.273-2.845 2.845s1.273 2.845 2.845 2.845c1.572 0 2.845-1.273 2.845-2.845s-1.273-2.845-2.845-2.845z"></path>
<path fill="currentColor" d="M22.488 20.357c-0.833 0-1.512-0.679-1.512-1.512s0.679-1.512 1.512-1.512c0.833 0 1.512 0.679 1.512 1.512s-0.679 1.512-1.512 1.512zM22.488 15.999c-1.572 0-2.845 1.273-2.845 2.845s1.273 2.845 2.845 2.845c1.572 0 2.845-1.273 2.845-2.845s-1.273-2.845-2.845-2.845z"></path>
</svg>
