<svg xmlns="http://www.w3.org/2000/svg" width="32" height="32" viewBox="0 0 32 32">
    <path fill="currentColor" fill-rule="evenodd" d="M16 28C9.383 28 4 22.617 4 16S9.383 4 16 4c4.388 0 8.221 2.375 10.315 5.899l-2.754 2.753a1.613 1.613 0 0 1-1.148.475 1.61 1.61 0 0 1-1.148-.475 1.627 1.627 0 0 1 0-2.296.633.633 0 0 0 .132-.197l1.084-1.084a.622.622 0 0 0 .186-.446.623.623 0 0 0-.184-.444.626.626 0 0 0-.89-.001l-4.468 4.468a1.616 1.616 0 0 1-1.149.475 1.61 1.61 0 0 1-1.147-.475 1.626 1.626 0 0 1-.001-2.296.623.623 0 0 0 .121-.179l1.103-1.102a.626.626 0 0 0 0-.89.622.622 0 0 0-.445-.185.623.623 0 0 0-.444.184l-4.468 4.468a1.613 1.613 0 0 1-1.148.475 1.625 1.625 0 0 1-1.148-2.77.625.625 0 0 0 0-.89.626.626 0 0 0-.89 0 2.863 2.863 0 0 0-.842 2.037c0 .77.3 1.495.842 2.037a2.862 2.862 0 0 0 2.036.843c.772 0 1.495-.3 2.038-.843l1.56-1.56a2.86 2.86 0 0 0 2.833 2.403c.772 0 1.496-.3 2.039-.843l1.565-1.565c.096.59.365 1.136.795 1.565a2.866 2.866 0 0 0 2.038.843c.771 0 1.495-.3 2.038-.843l2.476-2.474A11.918 11.918 0 0 1 28 16c0 6.617-5.383 12-12 12m0-25.333C8.637 2.667 2.667 8.637 2.667 16S8.637 29.333 16 29.333 29.333 23.363 29.333 16 23.363 2.667 16 2.667m2.667 18.267A.667.667 0 0 0 18 21.6c0 .795-.916 1.467-2 1.467s-2-.672-2-1.467a.667.667 0 0 0-1.333 0c0 1.544 1.494 2.8 3.333 2.8 1.839 0 3.333-1.256 3.333-2.8a.667.667 0 0 0-.666-.666M10 16a1.334 1.334 0 1 0 .001 2.668A1.334 1.334 0 0 0 10 16m12 0a1.334 1.334 0 1 0 .001 2.668A1.334 1.334 0 0 0 22 16"/>
</svg>
