<!-- Generated by IcoMoon.io -->
<svg version="1.1" xmlns="http://www.w3.org/2000/svg" width="32" height="32" viewBox="0 0 32 32">
<title>collect-ticket</title>
<path fill="currentColor" d="M14.91 17.333h-4.94c-0.368 0-0.667-0.299-0.667-0.667s0.299-0.667 0.667-0.667h4.94c0.368 0 0.667 0.299 0.667 0.667s-0.299 0.667-0.667 0.667z"></path>
<path fill="currentColor" d="M22.030 9.333h-12.060c-0.368 0-0.667-0.299-0.667-0.667s0.299-0.667 0.667-0.667h12.060c0.368 0 0.667 0.299 0.667 0.667s-0.299 0.667-0.667 0.667z"></path>
<path fill="currentColor" d="M22.030 13.333h-12.060c-0.368 0-0.667-0.299-0.667-0.667s0.299-0.667 0.667-0.667h12.060c0.368 0 0.667 0.299 0.667 0.667s-0.299 0.667-0.667 0.667z"></path>
<path fill="currentColor" d="M16 25.285c0.153 0 0.307 0.053 0.432 0.159l2.763 2.348 2.761-2.348c0.24-0.203 0.585-0.213 0.835-0.023l2.58 1.949v-22.704c0-0.367-0.299-0.667-0.667-0.667h-17.408c-0.368 0-0.667 0.3-0.667 0.667v22.704l2.58-1.949c0.249-0.191 0.595-0.18 0.835 0.023l2.761 2.348 2.763-2.348c0.125-0.105 0.279-0.159 0.432-0.159v0zM25.967 28.639v0zM6.021 29.333c-0.099 0-0.196-0.020-0.287-0.065-0.232-0.111-0.439-0.373-0.439-0.629v-23.972c0-1.103 0.897-2 2-2h17.408c1.103 0 2 0.897 2 2v23.972c0 0.256-0.148 0.491-0.38 0.601-0.223 0.108-0.548 0.112-0.747-0.041l-3.164-2.392-2.787 2.368c-0.251 0.211-0.615 0.211-0.865 0l-2.761-2.348-2.761 2.348c-0.251 0.211-0.615 0.211-0.865 0l-2.787-2.368-3.164 2.392c-0.117 0.089-0.26 0.135-0.401 0.135v0z"></path>
</svg>
