<!-- Generated by IcoMoon.io -->
<svg version="1.1" xmlns="http://www.w3.org/2000/svg" width="32" height="32" viewBox="0 0 32 32">
<title>confirmation-reverse</title>
<path fill="currentColor" d="M28 6.51v22.49l-5-3-3 3-4-3-4 3-3-3-5 3v-22.49c0-1.936 1.616-3.51 3.6-3.51h16.8c1.984 0 3.6 1.574 3.6 3.51zM10.874 14.556c-0.4-0.36-0.994-0.358-1.3-0.016-0.318 0.352-0.25 0.93 0.152 1.29l4.28 3.856c0.020 0.016 0.040 0.020 0.056 0.032 0.014 0.016 0.020 0.034 0.034 0.048 0.151 0.139 0.353 0.224 0.575 0.224 0.252 0 0.479-0.11 0.635-0.285l7.357-8.195c0.135-0.152 0.217-0.352 0.217-0.572 0-0.252-0.108-0.479-0.28-0.637-0.151-0.139-0.353-0.224-0.575-0.224-0.252 0-0.479 0.11-0.635 0.285l-6.783 7.559-3.732-3.36z"></path>
</svg>
