<!-- Generated by IcoMoon.io -->
<svg version="1.1" xmlns="http://www.w3.org/2000/svg" width="32" height="32" viewBox="0 0 32 32">
<title>data-v2</title>
<path fill="currentColor" d="M5.333 9.333v-4.7c0-0.349 0.284-0.633 0.633-0.633h3.367v2.667c0 0.368 0.299 0.667 0.667 0.667s0.667-0.299 0.667-0.667v-2.667h10.667v2.667c0 0.368 0.299 0.667 0.667 0.667s0.667-0.299 0.667-0.667v-2.667h3.367c0.349 0 0.633 0.284 0.633 0.633v4.7h-21.333zM26.667 27.367c0 0.349-0.284 0.633-0.633 0.633h-20.067c-0.349 0-0.633-0.284-0.633-0.633v-16.7h21.333v16.7zM26.033 2.667h-3.367v-1.333c0-0.368-0.299-0.667-0.667-0.667s-0.667 0.299-0.667 0.667v1.333h-10.667v-1.333c0-0.368-0.299-0.667-0.667-0.667s-0.667 0.299-0.667 0.667v1.333h-3.367c-1.085 0-1.967 0.883-1.967 1.967v22.733c0 1.085 0.881 1.967 1.967 1.967h20.067c1.085 0 1.967-0.881 1.967-1.967v-22.733c0-1.084-0.881-1.967-1.967-1.967v0z"></path>
<path fill="currentColor" d="M21.333 15.333h1.333c0.368 0 0.667-0.299 0.667-0.667s-0.299-0.667-0.667-0.667h-1.333c-0.368 0-0.667 0.299-0.667 0.667s0.299 0.667 0.667 0.667z"></path>
<path fill="currentColor" d="M21.333 20h1.333c0.368 0 0.667-0.299 0.667-0.667s-0.299-0.667-0.667-0.667h-1.333c-0.368 0-0.667 0.299-0.667 0.667s0.299 0.667 0.667 0.667z"></path>
<path fill="currentColor" d="M21.333 24.667h1.333c0.368 0 0.667-0.299 0.667-0.667s-0.299-0.667-0.667-0.667h-1.333c-0.368 0-0.667 0.299-0.667 0.667s0.299 0.667 0.667 0.667z"></path>
<path fill="currentColor" d="M15.333 15.333h1.333c0.368 0 0.667-0.299 0.667-0.667s-0.299-0.667-0.667-0.667h-1.333c-0.368 0-0.667 0.299-0.667 0.667s0.299 0.667 0.667 0.667z"></path>
<path fill="currentColor" d="M15.333 20h1.333c0.368 0 0.667-0.299 0.667-0.667s-0.299-0.667-0.667-0.667h-1.333c-0.368 0-0.667 0.299-0.667 0.667s0.299 0.667 0.667 0.667z"></path>
<path fill="currentColor" d="M15.333 24.667h1.333c0.368 0 0.667-0.299 0.667-0.667s-0.299-0.667-0.667-0.667h-1.333c-0.368 0-0.667 0.299-0.667 0.667s0.299 0.667 0.667 0.667z"></path>
<path fill="currentColor" d="M9.333 15.333h1.333c0.368 0 0.667-0.299 0.667-0.667s-0.299-0.667-0.667-0.667h-1.333c-0.368 0-0.667 0.299-0.667 0.667s0.299 0.667 0.667 0.667z"></path>
<path fill="currentColor" d="M9.333 20h1.333c0.368 0 0.667-0.299 0.667-0.667s-0.299-0.667-0.667-0.667h-1.333c-0.368 0-0.667 0.299-0.667 0.667s0.299 0.667 0.667 0.667z"></path>
<path fill="currentColor" d="M9.333 24.667h1.333c0.368 0 0.667-0.299 0.667-0.667s-0.299-0.667-0.667-0.667h-1.333c-0.368 0-0.667 0.299-0.667 0.667s0.299 0.667 0.667 0.667z"></path>
</svg>
