<!-- Generated by IcoMoon.io -->
<svg version="1.1" xmlns="http://www.w3.org/2000/svg" width="32" height="32" viewBox="0 0 32 32">
<title>date</title>
<path fill="currentColor" d="M16 28c-6.627 0-12-5.373-12-12s5.373-12 12-12c6.627 0 12 5.373 12 12s-5.373 12-12 12zM21.88 15.143h-5.023v-6.859c0-0.483-0.384-0.855-0.857-0.855-0.459 0-0.857 0.382-0.857 0.855v7.718c0 0.483 0.382 0.855 0.857 0.855 0.021 0 0.036-0.010 0.057-0.012 0.022 0.002 0.039 0.012 0.063 0.012h5.76c0.54 0 0.977-0.384 0.977-0.857 0-0.459-0.439-0.857-0.977-0.857z"></path>
</svg>
