<svg xmlns="http://www.w3.org/2000/svg" width="32" height="32" viewBox="0 0 32 32">
    <g fill="none" fill-rule="nonzero">
        <path fill="#FFF" fill-opacity="0" d="M0 0h32v32H0z"/>
        <path fill="currentColor" fill-opacity=".54" d="M16 30C8.268 30 2 23.732 2 16S8.268 2 16 2s14 6.268 14 14-6.268 14-14 14zm0-1c7.18 0 13-5.82 13-13S23.18 3 16 3 3 8.82 3 16s5.82 13 13 13zm-5.995-6.195a.806.806 0 0 1-.765-1.064l3.01-8.981c.08-.24.27-.43.51-.51l8.98-3.011c.287-.1.611-.022.828.195a.806.806 0 0 1 .195.827l-3.01 8.982c-.08.24-.27.43-.51.51l-8.981 3.01a.809.809 0 0 1-.257.042zm8.83-3.97l2.856-8.525-8.523 2.858-2.857 8.524 8.524-2.857z"/>
    </g>
</svg>
