<svg xmlns="http://www.w3.org/2000/svg" width="32" height="32" viewBox="0 0 32 32">
    <g fill="none" fill-rule="nonzero">
        <path fill="none" d="M0 0h32v32H0z"/>
        <g stroke="currentColor" stroke-width="2">
            <path d="M16 28.69a47.648 47.648 0 0 0 4.743-4.756c2.434-2.824 4.166-5.593 4.889-8.123.244-.853.368-1.666.368-2.436C26 7.723 21.57 3 16 3 10.402 3 6 7.67 6 13.375c0 .77.124 1.583.368 2.436.723 2.53 2.454 5.299 4.89 8.123A47.648 47.648 0 0 0 16 28.69z"/>
            <path d="M16 17a4 4 0 1 0-.001-8.002 4 4 0 0 0 0 8.002z"/>
        </g>
    </g>
</svg>
