<?xml version="1.0" encoding="utf-8"?>
<!-- Generator: Adobe Illustrator 21.0.0, SVG Export Plug-In . SVG Version: 6.00 Build 0)  -->
<svg version="1.1" id="图层_1" xmlns="http://www.w3.org/2000/svg" xmlns:xlink="http://www.w3.org/1999/xlink" x="0px" y="0px"
	 viewBox="0 0 22 22" style="enable-background:new 0 0 22 22;" xml:space="preserve">
<style type="text/css">
	.st0{fill:#FF5722;}
</style>
<polygon class="st0" points="10.3,5.6 10.5,13.9 11.5,13.9 11.8,5.6 "/>
<path class="st0" d="M11,15.1c-0.3,0-0.5,0.1-0.7,0.3C10.1,15.5,10,15.8,10,16c0,0.3,0.1,0.5,0.3,0.7c0.2,0.2,0.4,0.3,0.7,0.3
	s0.5-0.1,0.7-0.3c0.2-0.2,0.3-0.4,0.3-0.7c0-0.3-0.1-0.5-0.3-0.7C11.5,15.2,11.3,15.1,11,15.1z"/>
<path class="st0" d="M11,0C4.9,0,0,4.9,0,11s4.9,11,11,11s11-4.9,11-11S17.1,0,11,0z M11,21C5.5,21,1,16.5,1,11S5.5,1,11,1
	s10,4.5,10,10S16.5,21,11,21z"/>
</svg>
