<!-- Generated by IcoMoon.io -->
<svg version="1.1" xmlns="http://www.w3.org/2000/svg" width="32" height="32" viewBox="0 0 32 32">
<title>fast</title>
<path fill="currentColor" d="M25.37 12.818h-7.418c-0.227 0-0.43-0.108-0.56-0.296-0.128-0.187-0.153-0.416-0.070-0.628l3.987-10.202c0.153-0.389 0.108-0.805-0.121-1.141-0.232-0.34-0.63-0.551-1.038-0.551-0.369 0-0.703 0.161-0.918 0.424l-14.189 15.282c-0.51 0.622-0.615 1.46-0.272 2.188s1.055 1.18 1.859 1.18h7.573c0.228 0 0.431 0.108 0.559 0.296s0.153 0.416 0.071 0.629l-4.023 10.311c-0.152 0.39-0.108 0.805 0.122 1.142 0.232 0.34 0.629 0.551 1.038 0.551 0.366 0 0.712-0.168 0.923-0.43l14.073-15.396c0.505-0.623 0.605-1.459 0.26-2.184-0.343-0.724-1.055-1.173-1.856-1.173z"></path>
</svg>
