<svg xmlns="http://www.w3.org/2000/svg" xmlns:xlink="http://www.w3.org/1999/xlink" width="24" height="24" viewBox="0 0 24 24">
    <defs>
        <path id="a" d="M19.01 4.977c0 .238-.08.457-.232.636a1.27 1.27 0 0 0-.046.057l-4.936 5.273c-.221.236-.345.551-.345.88v7.465l-3.064-2.563v-5.062c0-.328-.123-.643-.344-.88L5.276 5.687a1.257 1.257 0 0 0-.065-.087.97.97 0 0 1-.22-.622c0-.533.42-.967.936-.967h12.146c.516 0 .937.434.937.967zM17.899 3H6.1C4.943 3 4 3.973 4 5.168c0 .516.176 1.008.496 1.399a.61.61 0 0 0 .084.11l4.662 4.985v5.212c0 .184.08.349.205.46l.021.021 4.19 3.504a.563.563 0 0 0 .812-.069.606.606 0 0 0 .131-.463v-8.51l4.817-5.145a.607.607 0 0 0 .061-.075c.336-.396.521-.9.521-1.429C20 3.973 19.057 3 17.899 3z"/>
    </defs>
    <g fill="none" fill-rule="evenodd">
        <mask id="b" fill="#fff">
            <use xlink:href="#a"/>
        </mask>
        <g fill="currentColor" fill-opacity=".54" mask="url(#b)">
            <path d="M0 0h24v24H0z"/>
        </g>
    </g>
</svg>
