<svg xmlns="http://www.w3.org/2000/svg" width="32" height="32" viewBox="0 0 32 32">
    <path fill="#FFA628" fill-rule="evenodd" d="M20.555 20.494H10.409c-1.141 0-2.095-.886-2.357-2.072h14.86c-.262 1.186-1.215 2.072-2.357 2.072zm-1.578 3.365h-6.99c-.183 0-.388-.258-.388-.603v-1.209h7.767v1.209c0 .345-.206.603-.389.603zM7.974 16.87H22.99v-1.812H7.974v1.812zm15.398-3.366c.647 0 1.172.541 1.172 1.206v3.066c0 2.223-1.598 4.033-3.625 4.233v1.248c0 1.188-.87 2.157-1.942 2.157h-6.99c-1.072 0-1.942-.969-1.942-2.157v-1.248c-2.026-.2-3.624-2.01-3.624-4.233V14.71c0-.665.524-1.206 1.17-1.206h15.781zM6.162 8.558V7.16h1.165v1.398H6.16zm0 2.33V9.49h1.165v1.398H6.16zm8.155-2.33V7.16h10.485v1.398H14.317zm0 2.33V9.49h10.485v1.398H14.317zm-4.66 1.99v-1.165h.206a.583.583 0 0 0 .583-.582V7.143c0-.954.776-1.73 1.73-1.73v1.165a.566.566 0 0 0-.565.565v3.988a1.75 1.75 0 0 1-1.748 1.747h-.206zm2.33 0v-1.165h.206a.583.583 0 0 0 .583-.582V7.143c0-.954.777-1.73 1.73-1.73v1.165a.566.566 0 0 0-.565.565v3.988a1.75 1.75 0 0 1-1.748 1.747h-.206zm-4.66 0v-1.165h.206a.583.583 0 0 0 .583-.582V7.143c0-.954.776-1.73 1.73-1.73v1.165a.566.566 0 0 0-.565.565v3.988a1.75 1.75 0 0 1-1.748 1.747h-.206z"/>
</svg>
