<!-- Generated by IcoMoon.io -->
<svg version="1.1" xmlns="http://www.w3.org/2000/svg" width="32" height="32" viewBox="0 0 32 32">
<title>group-type</title>
<path fill="currentColor" d="M6.667 14.876v-10.581c1.701 0.588 5.6 1.705 10.666 1.705 3.076 0 5.502-0.638 7.058-1.21l-2.968 5.144c-0.056 0.096-0.090 0.211-0.090 0.334 0 0.156 0.054 0.3 0.144 0.414l3.492 4.423c-1.198 0.548-3.914 1.563-7.636 1.563-5.356 0-9.421-1.33-10.666-1.79zM26.557 15.686c0.024-0.035 0.038-0.072 0.054-0.112 0.015-0.034 0.027-0.074 0.036-0.116 0.006-0.033 0.009-0.067 0.009-0.101 0-0.011-0-0.022-0.001-0.033 0-0.040 0-0.081-0.010-0.121-0.008-0.045-0.026-0.088-0.045-0.132-0.012-0.025-0.015-0.055-0.028-0.079-0.007-0.012-0.020-0.018-0.028-0.030-0.010-0.012-0.010-0.028-0.020-0.042l-3.72-4.712 3.773-6.541c0.014-0.025 0.015-0.053 0.026-0.079 0.019-0.038 0.035-0.083 0.044-0.129 0.006-0.033 0.009-0.066 0.009-0.1 0-0.011-0-0.022-0.001-0.033 0-0.039 0-0.079-0.008-0.121-0.011-0.052-0.029-0.098-0.051-0.14-0.009-0.022-0.011-0.049-0.024-0.072-0.005-0.010-0.016-0.014-0.021-0.024-0.027-0.040-0.063-0.072-0.098-0.106-0.030-0.028-0.057-0.060-0.092-0.080-0.009-0.007-0.016-0.020-0.028-0.026-0.029-0.017-0.061-0.018-0.092-0.030-0.038-0.016-0.073-0.032-0.113-0.040-0.032-0.006-0.069-0.009-0.106-0.009-0.016 0-0.033 0.001-0.049 0.002-0.032 0.001-0.062-0-0.097 0.005-0.055 0.012-0.103 0.029-0.148 0.052-0.021 0.010-0.046 0.011-0.071 0.024-0.030 0.020-3.26 1.907-8.324 1.907-6.436 0-11.026-1.928-11.072-1.947h-0.001c-0.040-0.018-0.088-0.020-0.133-0.028-0.043-0.010-0.084-0.025-0.126-0.025h-0.001c-0.024 0-0.044 0.012-0.068 0.013-0.063 0.007-0.127 0.014-0.183 0.038-0.048 0.020-0.085 0.052-0.125 0.080-0.030 0.020-0.064 0.034-0.090 0.060-0.053 0.054-0.097 0.118-0.129 0.188-0.006 0.012-0.014 0.017-0.018 0.024v0.002c-0.016 0.036-0.016 0.076-0.024 0.115-0.011 0.050-0.030 0.097-0.030 0.147v25.333c0 0.368 0.299 0.667 0.667 0.667s0.667-0.299 0.667-0.667v-12.372c1.701 0.588 5.6 1.705 10.666 1.705 5.456 0 8.867-2.010 9.010-2.096 0.017-0.010 0.025-0.026 0.042-0.038 0.008-0.006 0.020-0.003 0.028-0.010 0.024-0.018 0.038-0.046 0.059-0.068 0.030-0.033 0.061-0.064 0.085-0.102z"></path>
</svg>
