<svg xmlns="http://www.w3.org/2000/svg" width="24" height="24" viewBox="0 0 24 24">
    <g fill="currentColor" fill-rule="evenodd">
        <path d="M3.961 18.687h-1.77c-.393 0-.725-.274-.725-.615-.068-2.3.477-3.984 1.624-5.006 1.573-1.404 3.807-1.1 3.83-1.096a.5.5 0 0 0 .225-.97c-1.764-.562-2.484-1.573-2.484-3.493 0-1.706 1.568-3.093 3.493-3.093a.5.5 0 0 0 0-1c-2.477 0-4.493 1.835-4.493 4.093 0 1.608.45 2.756 1.423 3.547-.835.157-1.807.508-2.65 1.258C1.05 13.542.388 15.488.465 18.085c0 .883.773 1.602 1.724 1.602h1.771a.5.5 0 0 0 0-1"/>
        <path d="M11.775 4.4A3.328 3.328 0 0 1 15.1 7.725a3.328 3.328 0 0 1-3.325 3.325 3.329 3.329 0 0 1-3.324-3.325A3.329 3.329 0 0 1 11.775 4.4m0 7.65A4.329 4.329 0 0 0 16.1 7.725 4.329 4.329 0 0 0 11.775 3.4a4.33 4.33 0 0 0-4.324 4.325 4.33 4.33 0 0 0 4.324 4.325M18.25 18.869c0 .402-.328.73-.73.73H6.48a.732.732 0 0 1-.73-.73v-.23a4.796 4.796 0 0 1 4.79-4.79h2.92c2.642 0 4.79 2.15 4.79 4.79v.23zm-4.79-6.02h-2.92a5.798 5.798 0 0 0-5.79 5.79v.23c0 .954.776 1.73 1.73 1.73h11.04c.954 0 1.73-.776 1.73-1.73v-.23a5.798 5.798 0 0 0-5.79-5.79z"/>
        <path d="M21.527 12.312c-.845-.75-1.816-1.1-2.65-1.258.973-.79 1.422-1.939 1.422-3.547 0-2.258-2.014-4.094-4.493-4.094a.5.5 0 1 0 0 1c1.927 0 3.493 1.388 3.493 3.094 0 1.92-.718 2.931-2.483 3.492a.499.499 0 0 0-.335.588.503.503 0 0 0 .56.383c.021-.005 2.256-.308 3.83 1.096 1.146 1.021 1.692 2.705 1.623 5.018 0 .327-.331.603-.724.603H20a.5.5 0 1 0 0 1h1.77c.95 0 1.724-.718 1.724-1.587.078-2.614-.584-4.56-1.966-5.788"/>
    </g>
</svg>
