<!-- Generated by IcoMoon.io -->
<svg version="1.1" xmlns="http://www.w3.org/2000/svg" width="32" height="32" viewBox="0 0 32 32">
<title>lang-v2</title>
<path fill="currentColor" d="M19.068 27.587c1.227-1.251 2.099-3.227 2.639-5.504 1.196 0.383 2.388 0.888 3.572 1.516-1.575 1.92-3.74 3.333-6.211 3.988v0zM6.722 23.601c1.192-0.617 2.384-1.117 3.577-1.499 0.539 2.269 1.408 4.237 2.632 5.485-2.469-0.655-4.632-2.067-6.209-3.987v0zM12.91 4.418c-0.689 0.701-1.297 1.643-1.797 2.844-0.328 0.788-0.584 1.691-0.808 2.637-1.195-0.381-2.388-0.881-3.583-1.5 1.572-1.915 3.727-3.324 6.188-3.981v0zM25.28 8.402c-1.185 0.628-2.377 1.132-3.573 1.516-0.54-2.279-1.411-4.253-2.637-5.505 2.471 0.655 4.635 2.068 6.211 3.989v0zM22.369 15.334c-0.033-1.384-0.159-2.775-0.389-4.103 1.368-0.431 2.732-1.005 4.089-1.736 1.103 1.701 1.779 3.695 1.897 5.839h-5.597zM22.369 16.667h5.597c-0.119 2.143-0.795 4.137-1.897 5.836-1.357-0.729-2.721-1.304-4.089-1.735 0.231-1.328 0.356-2.719 0.389-4.101v0zM16.666 19.851v-3.184h4.356c-0.031 1.304-0.131 2.569-0.324 3.741-1.34-0.329-2.684-0.515-4.032-0.557v0zM16.666 27.565v-6.371c1.255 0.043 2.504 0.217 3.751 0.525-0.211 0.903-0.452 1.763-0.763 2.507-0.564 1.356-1.521 2.936-2.988 3.339v0zM15.333 21.198v6.364c-1.811-0.495-3.075-2.823-3.764-5.82 1.256-0.313 2.512-0.493 3.764-0.544v0zM10.965 16.667h4.368v3.187c-1.34 0.051-2.681 0.241-4.025 0.573-0.2-1.203-0.313-2.477-0.343-3.76v0zM9.632 16.667c0.032 1.389 0.159 2.787 0.393 4.12-1.365 0.429-2.729 0.997-4.095 1.717-1.103-1.7-1.779-3.695-1.896-5.837h5.597zM9.646 15.334h-5.612c0.117-2.144 0.793-4.139 1.896-5.839 1.361 0.717 2.723 1.285 4.084 1.715-0.223 1.292-0.337 2.687-0.368 4.124v0zM15.333 12.145v3.189h-4.368c0.029-1.284 0.143-2.557 0.343-3.761 1.344 0.332 2.685 0.523 4.025 0.572v0zM15.333 4.438v6.364c-1.252-0.051-2.508-0.231-3.764-0.544 0.689-2.999 1.953-5.325 3.764-5.82v0zM16.666 10.806v-6.368c1.816 0.495 3.081 2.832 3.768 5.839-1.251 0.311-2.507 0.485-3.768 0.529v0zM16.666 12.149c1.347-0.043 2.691-0.228 4.031-0.557 0.197 1.197 0.309 2.465 0.339 3.743h-4.369v-3.185zM16 2.667c-7.363 0-13.333 5.969-13.333 13.333 0 7.363 5.971 13.333 13.333 13.333 7.364 0 13.333-5.971 13.333-13.333 0-7.364-5.969-13.333-13.333-13.333v0z"></path>
</svg>
