<svg xmlns="http://www.w3.org/2000/svg" width="16" height="16" viewBox="0 0 16 16">
    <path fill="#FF5722" fill-rule="evenodd" d="M11.348 6.608h-2.65c-.081 0-.154-.047-.2-.13a.348.348 0 0 1-.025-.275L9.897 1.74a.633.633 0 0 0-.043-.5.44.44 0 0 0-.371-.24.396.396 0 0 0-.328.185l-5.07 6.686c-.182.272-.22.639-.097.957.122.318.377.516.664.516h2.706c.081 0 .154.048.2.13a.35.35 0 0 1 .025.275l-1.438 4.51a.633.633 0 0 0 .044.5c.083.149.225.241.371.241.13 0 .255-.074.33-.188l5.028-6.736a1.06 1.06 0 0 0 .093-.955c-.123-.317-.377-.513-.663-.513z"/>
</svg>
