<svg xmlns="http://www.w3.org/2000/svg" width="24" height="24" viewBox="0 0 24 24">
    <g fill="currentColor" fill-rule="nonzero">
        <path d="M5.5 19h13c.3 0 .5-.2.5-.5s-.2-.5-.5-.5h-13c-.3 0-.5.2-.5.5s.2.5.5.5zM5.5 17h13c.3 0 .5-.2.5-.5s-.2-.5-.5-.5h-.4c-.1-2.8-2-5.1-4.6-5.7.3-.4.5-.8.5-1.3 0-1.1-.9-2-2-2s-2 .9-2 2c0 .5.2 1 .5 1.3-2.6.6-4.5 2.9-4.6 5.7h-.4c-.3 0-.5.2-.5.5s.2.5.5.5zM12 8c.6 0 1 .4 1 1s-.4 1-1 1-1-.4-1-1 .4-1 1-1zm0 3.1c2.7 0 5 2.2 5.1 4.9H6.9c.1-2.7 2.4-4.9 5.1-4.9z"/>
        <path d="M20.5 4h-3.9V.5c0-.2-.1-.4-.3-.5-.2-.1-.4 0-.6.2C13.5 2.5 3.8 4 3.8 4H3.5c-.3 0-.5.2-.5.5v18c0 .3.2.5.5.5h17c.3 0 .5-.2.5-.5v-18c0-.3-.2-.5-.5-.5zm-4.9-2.4V4H9.1c2.4-.6 5.1-1.3 6.5-2.4zM20 22H4V5h16v17z"/>
    </g>
</svg>
