<svg xmlns="http://www.w3.org/2000/svg" width="24" height="24" viewBox="0 0 24 24">
    <g fill="currentColor" fill-rule="nonzero">
        <path d="M21.3 3H2.7c-.4 0-.7.3-.7.7v12.6c0 .4.3.7.7.7h8.8v5c0 .3.2.5.5.5s.5-.2.5-.5v-5h8.8c.4 0 .7-.3.7-.7V3.7c0-.4-.3-.7-.7-.7zM21 16H3V4h18v12z"/>
        <path d="M12.5 6.5c-.3 0-.5.2-.5.5v2.5H9V7c0-.3-.2-.5-.5-.5S8 6.7 8 7v6c0 .3.2.5.5.5s.5-.2.5-.5v-2.5h3V13c0 .3.2.5.5.5s.5-.2.5-.5V7c0-.3-.2-.5-.5-.5M15.5 13.5c-.3 0-.5-.2-.5-.5V9.5c0-.3.2-.5.5-.5s.5.2.5.5V13c0 .3-.2.5-.5.5M14.8 7.2c0-.5.3-.8.7-.8.4 0 .8.3.8.8 0 .4-.3.8-.8.8s-.7-.3-.7-.8"/>
    </g>
</svg>
