<svg xmlns="http://www.w3.org/2000/svg" width="24" height="24" viewBox="0 0 24 24">
    <g fill="currentColor" fill-rule="evenodd">
        <path d="M18.58 21H5.541a1.232 1.232 0 0 1-1.231-1.23A5.776 5.776 0 0 1 10.08 14h3.961a5.775 5.775 0 0 1 5.769 5.77A1.23 1.23 0 0 1 18.58 21m-4.539-8H10.08a6.779 6.779 0 0 0-6.77 6.77A2.233 2.233 0 0 0 5.541 22H18.58a2.233 2.233 0 0 0 2.23-2.23c0-3.733-3.037-6.77-6.769-6.77M11.873 3.5a3.629 3.629 0 0 1 3.625 3.625 3.629 3.629 0 0 1-3.625 3.625 3.629 3.629 0 0 1-3.625-3.625A3.629 3.629 0 0 1 11.873 3.5m0 8.25a4.63 4.63 0 0 0 4.625-4.625A4.63 4.63 0 0 0 11.873 2.5a4.63 4.63 0 0 0-4.625 4.625 4.63 4.63 0 0 0 4.625 4.625"/>
    </g>
</svg>
