<svg xmlns="http://www.w3.org/2000/svg" xmlns:xlink="http://www.w3.org/1999/xlink" width="24" height="24" viewBox="0 0 24 24">
    <defs>
        <path id="a" d="M18.406 6H5.594c-.438 0-.813.156-1.125.469A1.534 1.534 0 0 0 4 7.594v9.594c0 .447.156.828.469 1.14.312.313.687.469 1.125.469h12.812c.438 0 .813-.156 1.125-.469.313-.312.469-.693.469-1.14V7.594c0-.438-.156-.813-.469-1.125A1.534 1.534 0 0 0 18.406 6zM7.594 7.39c.166 0 .31.06.43.18a.586.586 0 0 1 0 .844.586.586 0 0 1-.844 0 .586.586 0 0 1 0-.844c.12-.12.258-.18.414-.18zM5.406 8a.6.6 0 0 1 .172-.43A.561.561 0 0 1 6 7.39c.167 0 .307.06.422.18a.6.6 0 0 1 .172.43.582.582 0 0 1-.172.414.561.561 0 0 1-.422.18.561.561 0 0 1-.422-.18A.582.582 0 0 1 5.406 8zm13 9.188H5.594V10h12.812v7.188zm0-8.797h-9.61v-.797h9.626l-.016.797z"/>
    </defs>
    <g fill="none" fill-rule="evenodd">
        <mask id="b" fill="#fff">
            <use xlink:href="#a"/>
        </mask>
        <use fill="#000" style="mix-blend-mode:luminosity" xlink:href="#a"/>
        <g fill="currentColor" mask="url(#b)">
            <path d="M0 0h24v24H0z"/>
        </g>
    </g>
</svg>
