<svg xmlns="http://www.w3.org/2000/svg" xmlns:xlink="http://www.w3.org/1999/xlink" width="24" height="24" viewBox="0 0 24 24">
    <defs>
        <path id="a" d="M18.697 15.239c-.25.801-.644 1.603-1.183 2.404-.827 1.256-1.65 1.885-2.47 1.885-.315 0-.764-.103-1.347-.308-.551-.205-1.035-.308-1.452-.308-.39 0-.846.106-1.365.317-.52.218-.942.327-1.27.327-.974 0-1.939-.83-2.894-2.49-.942-1.673-1.413-3.285-1.413-4.837 0-1.461.362-2.66 1.086-3.596C7.114 7.71 8.024 7.25 9.12 7.25c.462 0 1.029.096 1.702.288.667.192 1.11.289 1.327.289.289 0 .747-.11 1.375-.327.654-.218 1.208-.327 1.664-.327.762 0 1.445.208 2.048.625.333.23.666.551 1 .961-.507.43-.872.808-1.097 1.135a3.424 3.424 0 0 0-.625 1.99c0 .795.222 1.51.664 2.145.442.634.949 1.038 1.52 1.211zM15.082 3.96c0 .391-.093.827-.28 1.308-.191.48-.49.923-.893 1.327-.347.346-.693.577-1.039.692-.237.07-.57.125-1 .164.02-.956.27-1.78.75-2.472.475-.685 1.276-1.16 2.404-1.423.006.02.014.055.024.106s.018.087.024.106c0 .026.002.058.005.096.003.039.005.07.005.096z"/>
    </defs>
    <g fill="none" fill-rule="evenodd">
        <mask id="b" fill="#fff">
            <use xlink:href="#a"/>
        </mask>
        <use fill="#000" style="mix-blend-mode:luminosity" xlink:href="#a"/>
        <g fill="currentColor" mask="url(#b)">
            <path d="M0 0h24v24H0z"/>
        </g>
    </g>
</svg>
