<svg xmlns="http://www.w3.org/2000/svg" xmlns:xlink="http://www.w3.org/1999/xlink" width="24" height="24" viewBox="0 0 24 24">
    <defs>
        <path id="a" d="M7.727 12.693V9.455h9.546v7.073c0 .398-.157.597-.469.597h-1.193v2.216c0 .284-.1.525-.299.724a.986.986 0 0 1-.724.299h-.043c-.198 0-.397-.071-.596-.213a.971.971 0 0 1-.384-.81v-2.216h-2.088v2.216c0 .284-.1.525-.298.724a.986.986 0 0 1-.724.299.986.986 0 0 1-.725-.299.986.986 0 0 1-.298-.724v-2.216H8.196c-.312 0-.469-.199-.469-.597v-3.835zm10.526-3.622a.986.986 0 0 1 .724-.298c.284 0 .526.1.725.298.199.199.298.44.298.724v4.091c0 .284-.1.526-.298.725a.986.986 0 0 1-.725.298.986.986 0 0 1-.724-.298.986.986 0 0 1-.298-.725v-4.09c0-.285.099-.526.298-.725zm-12.955 0a.986.986 0 0 1 .725-.298c.284 0 .525.1.724.298.199.199.298.44.298.724v4.091c0 .284-.099.526-.298.725a.986.986 0 0 1-.724.298.986.986 0 0 1-.725-.298.986.986 0 0 1-.298-.725v-4.09c0-.285.1-.526.298-.725zm9.546-4.006c.625.284 1.129.703 1.513 1.257.383.554.625 1.016.724 1.385.1.37.163.725.192 1.066H7.727c.114-1.818.91-3.054 2.387-3.708l-.767-.937c0-.029.014-.057.042-.085L9.517 4l.81.98a6.371 6.371 0 0 1 2.173-.383c.71 0 1.42.127 2.13.383l.853-.98c.028 0 .057.014.085.043l.085.085-.81.937zm-4.432 2.131c.37 0 .554-.185.554-.554a.603.603 0 0 0-.17-.405.505.505 0 0 0-.384-.192.547.547 0 0 0-.426.192.603.603 0 0 0-.17.405c0 .142.063.27.191.384.128.113.263.17.405.17zm4.176 0a.603.603 0 0 0 .405-.17.505.505 0 0 0 .192-.384c0-.142-.064-.277-.192-.405s-.263-.192-.405-.192c-.37 0-.554.2-.554.597 0 .37.185.554.554.554z"/>
    </defs>
    <g fill="none" fill-rule="evenodd">
        <mask id="b" fill="#fff">
            <use xlink:href="#a"/>
        </mask>
        <use fill="#000" style="mix-blend-mode:luminosity" xlink:href="#a"/>
        <g fill="currentColor" mask="url(#b)">
            <path d="M0 0h24v24H0z"/>
        </g>
    </g>
</svg>
