<!-- Generated by IcoMoon.io -->
<svg version="1.1" xmlns="http://www.w3.org/2000/svg" width="32" height="32" viewBox="0 0 32 32">
<title>print-v2</title>
<path fill="currentColor" d="M28 26.517c0 0.817-0.665 1.483-1.483 1.483h-21.035c-0.817 0-1.483-0.665-1.483-1.483v-8.312c0-0.819 0.665-1.484 1.483-1.484h21.035c0.817 0 1.483 0.665 1.483 1.484v8.312zM7.333 4h11.333v6.235c0 0.368 0.299 0.667 0.667 0.667h6v4.487h-18.667v-10.721c0-0.367 0.3-0.667 0.667-0.667v0zM20 4.914l4.569 4.653h-4.569v-4.653zM26.667 15.404v-5.329c0-0.175-0.069-0.343-0.192-0.468l-6.616-6.74c-0.125-0.128-0.297-0.2-0.476-0.2h-12.049c-1.103 0-2 0.897-2 2v10.737c-1.483 0.080-2.667 1.299-2.667 2.801v8.312c0 1.553 1.263 2.816 2.816 2.816h21.035c1.553 0 2.816-1.263 2.816-2.816v-8.312c0-1.503-1.184-2.721-2.667-2.801v0z"></path>
<path fill="currentColor" d="M8.822 23.023c-0.833 0-1.512-0.679-1.512-1.512s0.679-1.512 1.512-1.512c0.833 0 1.512 0.679 1.512 1.512s-0.679 1.512-1.512 1.512zM8.822 18.666c-1.572 0-2.845 1.273-2.845 2.845s1.273 2.845 2.845 2.845c1.572 0 2.845-1.273 2.845-2.845s-1.273-2.845-2.845-2.845z"></path>
</svg>
