<svg xmlns="http://www.w3.org/2000/svg" xmlns:xlink="http://www.w3.org/1999/xlink" width="24" height="24" viewBox="0 0 24 24">
    <defs>
        <path id="a" d="M6.26 5.74c-.86 0-1.67.163-2.433.49a6.312 6.312 0 0 0-1.994 1.342A6.335 6.335 0 0 0 .49 9.56 6.05 6.05 0 0 0 0 11.986c0 .87.164 1.683.491 2.44.328.759.775 1.42 1.342 1.988a6.312 6.312 0 0 0 1.994 1.341 6.102 6.102 0 0 0 2.434.492c.86 0 1.671-.164 2.434-.492a6.312 6.312 0 0 0 1.994-1.341 6.335 6.335 0 0 0 1.342-1.987 6.086 6.086 0 0 0 .49-2.441c0-.86-.163-1.67-.49-2.427a6.335 6.335 0 0 0-1.342-1.987 6.312 6.312 0 0 0-1.994-1.341 6.102 6.102 0 0 0-2.434-.492zm1.054 7.143H3.14V11.5h2.772V8.02h1.402v4.863zm16.588-3.241l-.065.065-4.435 5.087c-.195.195-.402.293-.62.293-.217 0-.423-.098-.619-.293l-4.435-5.087-.065-.098a.353.353 0 0 1-.098-.26c0-.153.055-.278.163-.376a.565.565 0 0 1 .392-.147h9.326c.152 0 .282.05.391.147a.482.482 0 0 1 .163.375c0 .13-.033.228-.098.294z"/>
    </defs>
    <g fill="none" fill-rule="evenodd">
        <mask id="b" fill="#fff">
            <use xlink:href="#a"/>
        </mask>
        <use fill="#000" xlink:href="#a"/>
        <g fill="#000" mask="url(#b)">
            <path d="M0 24h24V0H0z"/>
        </g>
    </g>
</svg>
