<svg xmlns="http://www.w3.org/2000/svg" xmlns:xlink="http://www.w3.org/1999/xlink" width="24" height="24" viewBox="0 0 24 24">
    <defs>
        <path id="a" d="M6.26 5.74c-.86 0-1.67.163-2.433.49a6.312 6.312 0 0 0-1.994 1.342A6.335 6.335 0 0 0 .49 9.56 6.05 6.05 0 0 0 0 11.986c0 .87.164 1.683.491 2.44.328.759.775 1.42 1.342 1.988a6.312 6.312 0 0 0 1.994 1.341 6.102 6.102 0 0 0 2.434.492c.86 0 1.671-.164 2.434-.492a6.312 6.312 0 0 0 1.994-1.341 6.335 6.335 0 0 0 1.342-1.987 6.086 6.086 0 0 0 .49-2.441c0-.86-.163-1.67-.49-2.427a6.335 6.335 0 0 0-1.342-1.987 6.312 6.312 0 0 0-1.994-1.341 6.102 6.102 0 0 0-2.434-.492zm1.054 7.143H3.14V11.5h2.772V8.02h1.402v4.863zm16.588.389c.065.065.098.163.098.294a.482.482 0 0 1-.163.375.565.565 0 0 1-.391.146H14.12a.565.565 0 0 1-.392-.146.482.482 0 0 1-.163-.375c0-.11.033-.196.098-.261l.065-.098 4.435-5.087c.196-.196.402-.294.62-.294.217 0 .424.098.62.294l4.434 5.087.065.065z"/>
    </defs>
    <g fill="none" fill-rule="evenodd">
        <mask id="b" fill="#fff">
            <use xlink:href="#a"/>
        </mask>
        <use fill="#000" xlink:href="#a"/>
        <g fill="#000" mask="url(#b)">
            <path d="M0 0h24v24H0z"/>
        </g>
    </g>
</svg>
