<svg xmlns="http://www.w3.org/2000/svg" width="32" height="32" viewBox="0 0 32 32">
    <path fill="currentColor" fill-rule="evenodd" d="M23.333 14.833a4.672 4.672 0 0 1-4.666-4.666A4.672 4.672 0 0 1 23.333 5.5 4.672 4.672 0 0 1 28 10.167a4.672 4.672 0 0 1-4.667 4.666m6-4.666c0-3.308-2.692-6-6-6s-6 2.692-6 6c0 3.081 2.342 5.596 5.334 5.932v11.068a.667.667 0 0 0 1.333 0V16.099c2.992-.336 5.333-2.851 5.333-5.932m-16.666-6a.667.667 0 0 0-.667.666v8A3.337 3.337 0 0 1 9.333 16.1V4.833a.667.667 0 0 0-1.333 0V16.1a3.337 3.337 0 0 1-2.667-3.266v-8a.667.667 0 0 0-1.333 0v8c0 2.346 1.745 4.272 4 4.599v9.735a.667.667 0 0 0 1.333 0v-9.735c2.255-.327 4-2.253 4-4.599v-8a.667.667 0 0 0-.666-.666"/>
</svg>
