<!-- Generated by IcoMoon.io -->
<svg version="1.1" xmlns="http://www.w3.org/2000/svg" width="32" height="32" viewBox="0 0 32 32">
<title>time-v2</title>
<path fill="currentColor" d="M16 28c-6.617 0-12-5.383-12-12s5.383-12 12-12c6.617 0 12 5.383 12 12s-5.383 12-12 12zM16 2.667c-7.363 0-13.333 5.969-13.333 13.333 0 7.363 5.971 13.333 13.333 13.333s13.333-5.971 13.333-13.333c0-7.364-5.971-13.333-13.333-13.333z"></path>
<path fill="currentColor" d="M16 17.512c-0.833 0-1.512-0.679-1.512-1.512s0.679-1.512 1.512-1.512c0.833 0 1.512 0.679 1.512 1.512s-0.679 1.512-1.512 1.512zM16.667 13.241v-5.301c0-0.369-0.299-0.667-0.667-0.667s-0.667 0.297-0.667 0.667v5.301c-1.248 0.301-2.179 1.419-2.179 2.759 0 0.543 0.16 1.045 0.425 1.479l-3.741 3.74c-0.26 0.261-0.26 0.683 0 0.943 0.131 0.131 0.3 0.196 0.471 0.196s0.341-0.065 0.472-0.196l3.741-3.74c0.432 0.264 0.935 0.424 1.477 0.424 1.572 0 2.845-1.273 2.845-2.845 0-1.34-0.931-2.457-2.179-2.759z"></path>
</svg>
