<svg xmlns="http://www.w3.org/2000/svg" width="24" height="24" viewBox="0 0 24 24">
    <g fill="none" fill-rule="nonzero">
        <path fill="#FFF" d="M0 0h24v24H0z"/>
        <g fill="currentColor">
            <path d="M3 4.5h14a2 2 0 0 1 2 2v8a2 2 0 0 1-2 2H3a2 2 0 0 1-2-2v-8a2 2 0 0 1 2-2zM3.5 6a1 1 0 0 0-1 1v7a1 1 0 0 0 1 1h13a1 1 0 0 0 1-1V7a1 1 0 0 0-1-1h-13z"/>
            <path d="M10 13.5a3 3 0 1 1 0-6 3 3 0 0 1 0 6zm0-1.5a1.5 1.5 0 1 0 0-3 1.5 1.5 0 0 0 0 3z"/>
            <path d="M19 7.5h2a2 2 0 0 1 2 2v8a2 2 0 0 1-2 2H7a2 2 0 0 1-2-2v-1h1.5v.5a1 1 0 0 0 1 1h13a1 1 0 0 0 1-1v-7a1 1 0 0 0-1-1H19V7.5z"/>
        </g>
    </g>
</svg>
