<svg xmlns="http://www.w3.org/2000/svg" width="32" height="32" viewBox="0 0 32 32">
    <path fill="#02B391" fill-rule="nonzero" d="M9.333 8.4a.933.933 0 0 0-.933.933v12c0 .516.418.934.933.934h12a.933.933 0 0 0 .934-.934v-12a.933.933 0 0 0-.934-.933h-12zm0-1.733h12A2.667 2.667 0 0 1 24 9.333v12A2.667 2.667 0 0 1 21.333 24h-12a2.667 2.667 0 0 1-2.666-2.667v-12a2.667 2.667 0 0 1 2.666-2.666zm2.005 14.324a1 1 0 1 0 0-2 1 1 0 0 0 0 2zm8.164-.018a1 1 0 1 0 0-2 1 1 0 0 0 0 2zM6.667 10.667H24V12.4H6.667v-1.733zm0 5.333H24v1.733H6.667V16zm4.866 6.667c.479 0 .867.388.867.866V25.8a.867.867 0 0 1-1.733 0v-2.267c0-.478.388-.866.866-.866zm8 0c.479 0 .867.388.867.866V25.8a.867.867 0 0 1-1.733 0v-2.267c0-.478.388-.866.866-.866z"/>
</svg>
