<svg xmlns="http://www.w3.org/2000/svg" width="32" height="32" viewBox="0 0 32 32">
    <path fill="currentColor" fill-rule="evenodd" d="M30 22.8a.802.802 0 0 1-.8.8h-2.573c.014.133.04.263.04.4 0 .013-.003.025-.004.038a3.331 3.331 0 0 0-3.33-3.301 3.326 3.326 0 0 0-3.286 2.864h-8.094a3.326 3.326 0 0 0-3.286-2.864 3.331 3.331 0 0 0-3.33 3.301c-.001-.013-.004-.025-.004-.039 0-.136.026-.266.04-.398H2.8c-.441 0-.8-.36-.8-.802v-5.865c0-.441.359-.801.8-.801h26.4c.441 0 .8.36.8.801V22.8zm-6.667 3.27c-1.102 0-2-.897-2-2s.898-2 2-2c1.103 0 2 .897 2 2s-.897 2-2 2zm-14.666 0c-1.103 0-2-.897-2-2s.897-2 2-2c1.102 0 2 .897 2 2s-.898 2-2 2zm.692-17.484a2.257 2.257 0 0 1 2.026-1.253h6.882v7.466H6.252l3.107-6.213zM19.6 7.333h3.087c.976 0 1.841.622 2.149 1.55l1.93 5.792c.015.046.046.08.065.124H19.6V7.333zm9.6 7.466h-.41a.8.8 0 0 1-.76-.546L26.102 8.46a3.599 3.599 0 0 0-3.414-2.462H11.385c-1.37 0-2.605.763-3.22 1.991l-3.184 6.368a.794.794 0 0 1-.714.441H2.8a2.136 2.136 0 0 0-2.133 2.135V22.8c0 1.178.957 2.135 2.133 2.135h2.661a3.324 3.324 0 0 0 3.206 2.47c1.54 0 2.824-1.051 3.205-2.47h8.256a3.324 3.324 0 0 0 3.205 2.47c1.54 0 2.824-1.051 3.206-2.47H29.2a2.136 2.136 0 0 0 2.133-2.135v-5.865A2.136 2.136 0 0 0 29.2 14.8z"/>
</svg>
