<!-- Generated by IcoMoon.io -->
<svg version="1.1" xmlns="http://www.w3.org/2000/svg" width="32" height="32" viewBox="0 0 32 32">
<title>unsubscribe-v2</title>
<path fill="currentColor" d="M16 2.667c-3.567 0-6.889 1.396-9.371 3.863v-1.523c0-0.368-0.299-0.667-0.667-0.667-0.369 0-0.667 0.299-0.667 0.667v3.124c-0.055 0.196-0.011 0.404 0.113 0.569 0.117 0.188 0.316 0.319 0.553 0.319h3.345c0.369 0 0.667-0.299 0.667-0.667 0-0.369-0.297-0.667-0.667-0.667h-1.959c2.253-2.356 5.34-3.685 8.651-3.685 6.617 0 12 5.383 12 12s-5.383 12-12 12c-6.617 0-12-5.383-12-12 0-0.368-0.299-0.667-0.667-0.667s-0.667 0.299-0.667 0.667c0 7.352 5.981 13.333 13.333 13.333s13.333-5.981 13.333-13.333c0-7.352-5.981-13.333-13.333-13.333z"></path>
<path fill="currentColor" d="M12.843 12.626c0-1.447 0.959-2.44 2.491-2.661v5.321c-1.532-0.221-2.491-1.215-2.491-2.66zM19.157 19.374c0 1.447-0.957 2.44-2.491 2.66v-5.321c1.533 0.221 2.491 1.216 2.491 2.661zM12.843 19.374c0-0.369-0.299-0.667-0.667-0.667s-0.667 0.297-0.667 0.667c0 2.171 1.545 3.728 3.824 3.988v0.736c0 0.368 0.299 0.667 0.667 0.667 0.369 0 0.667-0.299 0.667-0.667v-0.736c2.279-0.26 3.824-1.817 3.824-3.988s-1.545-3.728-3.824-3.988v-5.421c1.533 0.221 2.491 1.215 2.491 2.661 0 0.368 0.299 0.667 0.667 0.667 0.369 0 0.667-0.299 0.667-0.667 0-2.172-1.545-3.729-3.824-3.988v-0.736c0-0.368-0.297-0.667-0.667-0.667-0.368 0-0.667 0.299-0.667 0.667v0.736c-2.279 0.259-3.824 1.816-3.824 3.988 0 2.171 1.545 3.728 3.824 3.987v5.421c-1.532-0.22-2.491-1.213-2.491-2.66z"></path>
</svg>
