<svg xmlns="http://www.w3.org/2000/svg" xmlns:xlink="http://www.w3.org/1999/xlink" width="24" height="24" viewBox="0 0 24 24">
    <defs>
        <path id="a" d="M11 8H8l4-4 4 4h-3v4h-2V8zm8-4c.6 0 1 .4 1 1v14c0 .6-.4 1-1 1H5c-.6 0-1-.4-1-1V5c0-.6.4-1 1-1h3v2H6v8h12V6h-2V4h3zM6 18h12v-2H6v2z"/>
    </defs>
    <g fill="none" fill-rule="evenodd">
        <mask id="b" fill="#fff">
            <use xlink:href="#a"/>
        </mask>
        <use fill="#444" fill-rule="nonzero" xlink:href="#a"/>
        <g fill="currentColor" mask="url(#b)">
            <path d="M0 0h24v24H0z"/>
        </g>
    </g>
</svg>
