<svg xmlns="http://www.w3.org/2000/svg" width="32" height="32" viewBox="0 0 32 32">
    <path fill="currentColor" fill-rule="evenodd" d="M26.034 28H5.966a.633.633 0 0 1-.632-.633v-16.7h21.333v16.7c0 .349-.284.633-.633.633M5.966 4h3.368v2.667a.666.666 0 1 0 1.333 0V4h10.667v2.667a.666.666 0 1 0 1.333 0V4h3.367c.35 0 .633.284.633.633v4.7H5.334v-4.7c0-.349.283-.633.632-.633m20.068-1.333h-3.367V1.333a.667.667 0 0 0-1.333 0v1.334H10.667V1.333a.667.667 0 0 0-1.333 0v1.334H5.966A1.968 1.968 0 0 0 4 4.633v22.734c0 1.085.88 1.966 1.965 1.966h20.068A1.969 1.969 0 0 0 28 27.367V4.633a1.97 1.97 0 0 0-1.967-1.966m-4.442 12.195l-7.648 7.648-3.473-3.472a.667.667 0 0 0-.943.943l3.944 3.944a.664.664 0 0 0 .943 0l8.12-8.12a.667.667 0 0 0-.943-.943"/>
</svg>
