<svg xmlns="http://www.w3.org/2000/svg" width="32" height="32" viewBox="0 0 32 32">
    <path fill="#009685" fill-rule="nonzero" d="M24.876 13.925c-.3 0-.583-.117-.795-.329A11.352 11.352 0 0 0 16 10.25a11.352 11.352 0 0 0-8.082 3.347c-.212.212-.494.33-.795.33-.3 0-.582-.118-.795-.33A1.117 1.117 0 0 1 6 12.801c0-.3.117-.583.33-.795A13.586 13.586 0 0 1 16 8a13.587 13.587 0 0 1 9.682 4.017c.205.211.318.489.318.784 0 .3-.117.583-.33.795-.21.212-.493.33-.794.33zm-4.097 4.097c-.3 0-.582-.117-.795-.33A5.598 5.598 0 0 0 16 16.043a5.6 5.6 0 0 0-3.984 1.65c-.213.213-.495.33-.795.33-.3 0-.583-.117-.795-.33a1.117 1.117 0 0 1-.33-.795c0-.3.117-.583.33-.795A7.832 7.832 0 0 1 16 13.793c2.106 0 4.085.82 5.574 2.31a1.126 1.126 0 0 1-.795 1.919zm-4.764 2.053a1.61 1.61 0 0 1 1.607 1.607 1.61 1.61 0 0 1-1.607 1.608 1.61 1.61 0 0 1-1.607-1.608 1.61 1.61 0 0 1 1.607-1.607z"/>
</svg>
